<svg xmlns="http://www.w3.org/2000/svg" xmlns:xlink="http://www.w3.org/1999/xlink" width="1920" zoomAndPan="magnify" viewBox="0 0 1440 449.999984" height="600" preserveAspectRatio="xMidYMid meet" version="1.0"><defs><g/><clipPath id="af07ebb01f"><path d="M 1000.550781 218.402344 L 1199.21875 218.402344 L 1199.21875 360.507812 L 1000.550781 360.507812 Z M 1000.550781 218.402344 " clip-rule="nonzero"/></clipPath><clipPath id="adea1177bf"><path d="M 1025.082031 196.648438 L 1174.59375 196.648438 L 1174.59375 368.777344 L 1025.082031 368.777344 Z M 1025.082031 196.648438 " clip-rule="nonzero"/></clipPath></defs><rect x="-144" width="1728" fill="#ffffff" y="-44.999998" height="539.99998" fill-opacity="1"/><rect x="-144" width="1728" fill="#11598d" y="-44.999998" height="539.99998" fill-opacity="1"/><path stroke-linecap="butt" transform="matrix(0.75, 0, 0, 0.75, 240.714396, 343.548871)" fill="none" stroke-linejoin="miter" d="M 0.000596825 1.502547 L 1220.8809 1.502547 " stroke="#000000" stroke-width="3" stroke-opacity="1" stroke-miterlimit="4"/><g clip-path="url(#af07ebb01f)"><path fill="#8e77f8" d="M 1100.726562 221.015625 L 1143.132812 232.476562 C 1155.320312 235.769531 1165.375 244.386719 1170.496094 255.929688 L 1196.472656 314.484375 C 1203.574219 330.488281 1196.457031 349.511719 1180.308594 356.269531 C 1177.925781 357.269531 1175.707031 357.820312 1173.832031 357.695312 L 1167.816406 360.316406 L 1143.589844 348.886719 L 1150.972656 339.363281 L 1055.839844 339.363281 L 1046.4375 300.785156 L 1034.292969 337.695312 L 1034.054688 346.742188 L 1020.582031 346.742188 C 1007.285156 346.742188 997.679688 334.015625 1001.332031 321.226562 L 1015.039062 273.179688 C 1017.640625 264.0625 1023.203125 256.074219 1030.851562 250.46875 L 1074.296875 218.632812 L 1100.726562 221.015625 " fill-opacity="1" fill-rule="nonzero"/></g><path fill="#000000" d="M 1071.558594 223.039062 C 1057.824219 216.511719 1050.175781 201.613281 1050.367188 199.347656 C 1050.722656 195.058594 1055.363281 187.679688 1070.007812 178.390625 C 1084.65625 169.105469 1104.300781 179.699219 1105.253906 193.628906 C 1106.207031 207.5625 1102.277344 226.492188 1102.277344 226.492188 C 1102.277344 226.492188 1083.792969 228.855469 1071.558594 223.039062 " fill-opacity="1" fill-rule="nonzero"/><path fill="#ffffff" d="M 1068.582031 244.46875 C 1077.511719 255.660156 1083.820312 254.234375 1089.535156 251.496094 C 1095.25 248.753906 1103.230469 231.847656 1101.5625 223.871094 C 1099.894531 215.894531 1103.703125 212.5625 1102.632812 206.847656 C 1101.5625 201.132812 1096.679688 201.964844 1094.417969 204.109375 C 1092.15625 206.25 1093.34375 212.800781 1093.34375 212.800781 C 1093.34375 212.800781 1090.011719 213.75 1087.75 208.511719 C 1085.488281 203.273438 1084.890625 198.632812 1084.890625 198.632812 C 1084.890625 198.632812 1077.390625 211.132812 1064.652344 209.824219 C 1051.914062 208.511719 1051.199219 199.226562 1051.4375 197.441406 C 1051.4375 197.441406 1048.699219 204.941406 1051.4375 212.203125 C 1054.175781 219.46875 1059.652344 233.277344 1068.582031 244.46875 Z M 1166.699219 358.554688 C 1164.347656 355.152344 1158.230469 347.710938 1147.894531 344.378906 C 1147.605469 344.285156 1147.296875 344.261719 1146.992188 344.300781 C 1144.777344 344.613281 1135.171875 346.238281 1130.136719 351.746094 C 1124.421875 357.996094 1123.171875 365.136719 1128.886719 367.101562 C 1134.355469 368.984375 1139.007812 368.410156 1145.351562 362.558594 C 1145.875 362.078125 1146.609375 361.898438 1147.289062 362.109375 C 1150.261719 363.023438 1158.820312 365.101562 1166.011719 361.394531 C 1167.050781 360.863281 1167.363281 359.515625 1166.699219 358.554688 Z M 1055.054688 336.082031 C 1056.355469 336.234375 1057.285156 334.824219 1056.714844 333.644531 L 1052.628906 325.132812 C 1051.453125 322.691406 1049.03125 321.101562 1046.328125 320.988281 L 1042.691406 320.839844 C 1042.691406 320.839844 1049.78125 331.140625 1052.152344 334.273438 C 1053.082031 335.503906 1054.128906 335.96875 1055.054688 336.082031 Z M 1042.683594 347.847656 C 1046.621094 347.847656 1050.710938 341.394531 1050.710938 341.394531 L 1048.125 337.742188 C 1049.171875 338.355469 1050.152344 338.925781 1050.867188 339.351562 C 1053.542969 340.921875 1056.21875 338.71875 1052.441406 335.886719 C 1048.664062 333.050781 1044.886719 330.535156 1044.886719 330.535156 L 1044.125 327.34375 C 1043.039062 322.789062 1038.699219 319.597656 1033.515625 319.957031 C 1030.128906 320.1875 1024.820312 324.851562 1026.550781 333.347656 C 1028.285156 341.847656 1031.316406 347.847656 1036.195312 347.847656 C 1041.078125 347.847656 1038.75 347.847656 1042.683594 347.847656 Z M 1056.4375 342.933594 L 1109.300781 342.933594 L 1091.917969 358.890625 L 1035.242188 358.890625 L 1056.4375 342.933594 " fill-opacity="1" fill-rule="nonzero"/><g clip-path="url(#adea1177bf)"><path fill="#000000" d="M 1051.242188 201.351562 C 1051.625 202.550781 1052.246094 203.871094 1053.242188 205.128906 C 1055.65625 208.191406 1059.472656 210.007812 1064.578125 210.535156 C 1074.917969 211.601562 1081.972656 203.800781 1084.488281 200.464844 C 1084.859375 202.308594 1085.632812 205.417969 1087.09375 208.796875 C 1089.578125 214.542969 1093.378906 213.53125 1093.542969 213.488281 C 1093.894531 213.386719 1094.117188 213.035156 1094.050781 212.671875 C 1093.734375 210.957031 1093.285156 206.167969 1094.910156 204.625 C 1095.941406 203.652344 1097.785156 202.839844 1099.398438 203.359375 C 1100.691406 203.78125 1101.566406 205.03125 1101.929688 206.976562 C 1102.386719 209.414062 1101.910156 211.363281 1101.355469 213.621094 C 1100.679688 216.375 1099.917969 219.492188 1100.863281 224.019531 C 1102.484375 231.789062 1094.625 248.265625 1089.226562 250.851562 C 1083.867188 253.417969 1077.902344 255.007812 1069.140625 244.023438 C 1060.746094 233.503906 1055.394531 220.679688 1052.105469 211.953125 C 1050.648438 208.09375 1050.808594 204.121094 1051.242188 201.351562 Z M 1103.210938 258.808594 L 1092.746094 249.835938 C 1098.089844 244.140625 1103.746094 230.820312 1102.257812 223.726562 C 1102.089844 222.914062 1101.992188 222.167969 1101.929688 221.453125 C 1110.886719 229.585938 1104.722656 253.507812 1103.210938 258.808594 Z M 1087.023438 263.738281 L 1082.730469 254.148438 C 1085.328125 254.089844 1087.675781 253.179688 1089.84375 252.140625 C 1090.109375 252.011719 1090.382812 251.847656 1090.65625 251.660156 Z M 1070.136719 261.714844 L 1069.089844 246.210938 C 1072.382812 250.054688 1075.34375 252.214844 1078.046875 253.28125 Z M 1067.558594 244.316406 C 1067.554688 244.363281 1067.539062 244.410156 1067.542969 244.460938 L 1068.820312 263.449219 C 1068.839844 263.734375 1069.027344 263.980469 1069.292969 264.074219 C 1069.371094 264.101562 1069.453125 264.117188 1069.535156 264.117188 C 1069.726562 264.117188 1069.917969 264.035156 1070.054688 263.890625 L 1079.488281 253.828125 C 1079.507812 253.8125 1079.511719 253.789062 1079.527344 253.773438 C 1080.082031 253.917969 1080.625 254.015625 1081.15625 254.078125 C 1081.164062 254.109375 1081.164062 254.140625 1081.175781 254.167969 L 1086.472656 266 L 1100.683594 338.488281 C 1100.75 338.828125 1101.046875 339.0625 1101.382812 339.0625 C 1101.429688 339.0625 1101.472656 339.0625 1101.519531 339.050781 C 1101.90625 338.976562 1102.160156 338.597656 1102.082031 338.210938 L 1087.890625 265.820312 L 1092.257812 251.296875 L 1103.121094 260.609375 C 1103.253906 260.722656 1103.417969 260.78125 1103.585938 260.78125 C 1103.652344 260.78125 1103.71875 260.773438 1103.78125 260.753906 C 1104.011719 260.6875 1104.195312 260.511719 1104.265625 260.28125 C 1104.671875 259 1114.046875 228.742188 1102.113281 219.730469 C 1102.03125 219.667969 1101.941406 219.628906 1101.851562 219.605469 C 1101.886719 217.46875 1102.316406 215.695312 1102.742188 213.960938 C 1103.308594 211.644531 1103.847656 209.453125 1103.335938 206.714844 C 1102.746094 203.566406 1101.109375 202.414062 1099.839844 202.003906 C 1097.667969 201.296875 1095.253906 202.332031 1093.925781 203.589844 C 1091.867188 205.539062 1092.257812 210.226562 1092.519531 212.148438 C 1091.589844 212.085938 1089.8125 211.488281 1088.40625 208.230469 C 1086.214844 203.152344 1085.605469 198.585938 1085.601562 198.542969 C 1085.5625 198.238281 1085.335938 197.996094 1085.039062 197.933594 C 1084.746094 197.875 1084.4375 198.003906 1084.28125 198.265625 C 1084.207031 198.386719 1076.851562 210.367188 1064.726562 209.113281 C 1060.015625 208.628906 1056.53125 206.992188 1054.363281 204.246094 C 1052.191406 201.488281 1052.027344 198.402344 1052.144531 197.535156 C 1052.191406 197.175781 1051.960938 196.835938 1051.609375 196.746094 C 1051.25 196.664062 1050.890625 196.855469 1050.765625 197.195312 C 1050.648438 197.511719 1047.96875 205.03125 1050.765625 212.457031 C 1054.03125 221.113281 1059.308594 233.75 1067.558594 244.316406 Z M 1166.296875 359.980469 C 1166.210938 360.324219 1165.992188 360.601562 1165.6875 360.761719 C 1158.816406 364.300781 1150.675781 362.40625 1147.5 361.425781 C 1146.585938 361.144531 1145.578125 361.375 1144.867188 362.035156 C 1141.136719 365.472656 1138.109375 366.964844 1135.261719 367.289062 C 1135.316406 366.867188 1135.871094 365.011719 1141.007812 359.742188 C 1141.28125 359.460938 1141.277344 359.011719 1140.992188 358.734375 C 1140.714844 358.460938 1140.261719 358.464844 1139.980469 358.746094 C 1135.921875 362.910156 1133.855469 365.835938 1133.851562 367.355469 C 1132.839844 367.339844 1131.839844 367.191406 1130.832031 366.9375 C 1130.375 364.988281 1134.871094 358.953125 1137.816406 355.609375 C 1138.074219 355.3125 1138.046875 354.863281 1137.753906 354.601562 C 1137.457031 354.339844 1137.003906 354.371094 1136.742188 354.664062 C 1135.484375 356.09375 1129.605469 362.960938 1129.394531 366.515625 C 1129.300781 366.488281 1129.210938 366.460938 1129.117188 366.425781 C 1128.367188 366.167969 1127.757812 365.796875 1127.265625 365.34375 C 1127.019531 361.179688 1132.777344 353.871094 1132.835938 353.796875 C 1133.082031 353.484375 1133.03125 353.039062 1132.722656 352.792969 C 1132.414062 352.546875 1131.964844 352.597656 1131.71875 352.90625 C 1131.5 353.183594 1127.109375 358.757812 1126.058594 363.324219 C 1126.058594 363.324219 1126.054688 363.320312 1126.054688 363.316406 C 1125.308594 360.398438 1127.078125 356.148438 1130.664062 352.226562 C 1135.582031 346.847656 1145.210938 345.273438 1147.09375 345.011719 C 1147.15625 345.003906 1147.21875 344.996094 1147.277344 344.996094 C 1147.414062 344.996094 1147.546875 345.019531 1147.675781 345.058594 C 1157.925781 348.367188 1163.984375 355.882812 1166.113281 358.964844 C 1166.316406 359.257812 1166.382812 359.628906 1166.296875 359.980469 Z M 1148.617188 343.882812 L 1161.601562 326.34375 C 1163.339844 323.996094 1163.652344 320.894531 1162.417969 318.246094 L 1144.714844 280.246094 C 1144.546875 279.886719 1144.121094 279.734375 1143.765625 279.898438 C 1143.40625 280.066406 1143.25 280.492188 1143.417969 280.847656 L 1161.125 318.847656 C 1162.136719 321.023438 1161.878906 323.566406 1160.453125 325.492188 L 1147.054688 343.59375 C 1147 343.59375 1146.949219 343.589844 1146.894531 343.59375 C 1144.136719 343.980469 1134.726562 345.664062 1129.609375 351.261719 C 1125.699219 355.535156 1123.808594 360.289062 1124.667969 363.667969 C 1125.167969 365.632812 1126.546875 367.054688 1128.652344 367.777344 C 1130.566406 368.4375 1132.34375 368.777344 1134.054688 368.777344 C 1138.015625 368.777344 1141.628906 366.964844 1145.835938 363.082031 C 1146.175781 362.769531 1146.652344 362.660156 1147.078125 362.789062 C 1150.425781 363.824219 1158.996094 365.8125 1166.339844 362.03125 C 1167.011719 361.6875 1167.5 361.0625 1167.683594 360.328125 C 1167.871094 359.578125 1167.722656 358.785156 1167.285156 358.152344 C 1165.109375 355.003906 1158.972656 347.398438 1148.617188 343.882812 Z M 1027.253906 333.207031 C 1026.488281 329.460938 1027.105469 326.03125 1028.996094 323.554688 C 1030.25 321.90625 1032.042969 320.773438 1033.566406 320.667969 C 1033.808594 320.652344 1034.046875 320.644531 1034.285156 320.644531 C 1038.675781 320.644531 1042.457031 323.441406 1043.429688 327.507812 L 1044.257812 330.972656 L 1044.492188 331.128906 C 1044.527344 331.152344 1048.296875 333.667969 1052.015625 336.457031 C 1053.425781 337.515625 1053.78125 338.425781 1053.519531 338.820312 C 1053.269531 339.199219 1052.328125 339.378906 1051.230469 338.734375 C 1048.554688 337.160156 1042.269531 333.507812 1042.269531 333.507812 L 1041.550781 334.742188 C 1041.550781 334.742188 1044.808594 336.632812 1047.628906 338.28125 L 1049.84375 341.410156 C 1048.542969 343.316406 1045.378906 347.132812 1042.683594 347.132812 L 1036.195312 347.132812 C 1031.152344 347.132812 1028.546875 339.5625 1027.253906 333.207031 Z M 1046.296875 321.703125 C 1048.746094 321.804688 1050.921875 323.238281 1051.984375 325.441406 L 1056.070312 333.953125 C 1056.261719 334.351562 1056.148438 334.75 1055.976562 334.988281 C 1055.878906 335.121094 1055.601562 335.421875 1055.140625 335.371094 C 1054.21875 335.261719 1053.40625 334.75 1052.722656 333.84375 C 1050.859375 331.386719 1046.023438 324.40625 1044.09375 321.613281 Z M 1042.683594 348.5625 C 1046.960938 348.5625 1051.136719 342.054688 1051.316406 341.777344 L 1051.570312 341.375 L 1050.617188 340.027344 C 1052.214844 340.914062 1053.957031 340.742188 1054.707031 339.613281 C 1055.171875 338.914062 1055.203125 337.839844 1054.246094 336.625 C 1054.484375 336.691406 1054.722656 336.757812 1054.972656 336.789062 C 1055.066406 336.800781 1055.160156 336.804688 1055.25 336.804688 C 1056 336.804688 1056.6875 336.449219 1057.140625 335.820312 C 1057.660156 335.089844 1057.746094 334.136719 1057.359375 333.335938 L 1053.269531 324.824219 C 1051.980469 322.140625 1049.332031 320.398438 1046.355469 320.273438 L 1041.292969 320.070312 L 1042.105469 321.246094 C 1042.167969 321.34375 1048.277344 330.214844 1051.027344 333.953125 C 1048.492188 332.117188 1046.230469 330.578125 1045.515625 330.097656 L 1044.820312 327.175781 C 1043.632812 322.207031 1038.855469 318.894531 1033.46875 319.242188 C 1031.523438 319.378906 1029.371094 320.695312 1027.859375 322.6875 C 1025.71875 325.5 1025.007812 329.335938 1025.851562 333.492188 C 1027.890625 343.492188 1031.371094 348.5625 1036.195312 348.5625 Z M 1084.046875 237.332031 C 1083.273438 241.71875 1078.6875 243.625 1078.492188 243.703125 C 1078.40625 243.738281 1078.316406 243.757812 1078.226562 243.757812 C 1077.945312 243.757812 1077.675781 243.589844 1077.5625 243.3125 C 1077.414062 242.945312 1077.589844 242.527344 1077.957031 242.378906 C 1077.996094 242.363281 1082.007812 240.683594 1082.640625 237.085938 C 1082.710938 236.695312 1083.078125 236.433594 1083.46875 236.503906 C 1083.859375 236.574219 1084.117188 236.941406 1084.046875 237.332031 Z M 1067.648438 227.847656 C 1067.558594 227.460938 1067.796875 227.074219 1068.179688 226.988281 C 1068.5625 226.902344 1068.949219 227.132812 1069.039062 227.519531 L 1071.550781 238.230469 L 1075.238281 236 C 1075.574219 235.796875 1076.011719 235.90625 1076.21875 236.242188 C 1076.421875 236.578125 1076.316406 237.019531 1075.976562 237.222656 L 1071.449219 239.960938 C 1071.339844 240.03125 1071.210938 240.066406 1071.082031 240.066406 C 1070.988281 240.066406 1070.894531 240.046875 1070.804688 240.011719 C 1070.59375 239.921875 1070.4375 239.738281 1070.386719 239.515625 Z M 1057.171875 222.148438 C 1056.941406 221.832031 1057.007812 221.386719 1057.320312 221.15625 C 1057.449219 221.0625 1060.453125 218.914062 1065.652344 221.195312 C 1066.015625 221.351562 1066.179688 221.773438 1066.019531 222.136719 C 1065.902344 222.402344 1065.640625 222.5625 1065.367188 222.5625 C 1065.269531 222.5625 1065.171875 222.542969 1065.078125 222.503906 C 1060.683594 220.570312 1058.265625 222.234375 1058.167969 222.308594 C 1057.847656 222.535156 1057.402344 222.464844 1057.171875 222.148438 Z M 1074.273438 221.050781 C 1073.992188 220.773438 1073.984375 220.324219 1074.257812 220.042969 C 1074.414062 219.882812 1078.113281 216.160156 1084.316406 218.5625 C 1084.6875 218.707031 1084.867188 219.121094 1084.726562 219.488281 C 1084.582031 219.855469 1084.164062 220.035156 1083.800781 219.894531 C 1078.507812 217.839844 1075.414062 220.90625 1075.285156 221.035156 C 1075.144531 221.179688 1074.957031 221.253906 1074.773438 221.253906 C 1074.59375 221.253906 1074.414062 221.183594 1074.273438 221.050781 Z M 1112.003906 300.894531 L 1107.179688 285.546875 L 1127.824219 285.546875 L 1132.421875 300.179688 C 1133.089844 302.289062 1132.71875 304.523438 1131.40625 306.3125 C 1130.097656 308.097656 1128.074219 309.121094 1125.863281 309.121094 L 1123.207031 309.121094 C 1118.050781 309.121094 1113.546875 305.816406 1112.003906 300.894531 Z M 1132.558594 307.15625 C 1134.140625 305 1134.589844 302.300781 1133.785156 299.75 L 1129.03125 284.617188 C 1128.9375 284.320312 1128.664062 284.117188 1128.351562 284.117188 L 1106.207031 284.117188 C 1105.976562 284.117188 1105.765625 284.226562 1105.628906 284.410156 C 1105.496094 284.589844 1105.453125 284.832031 1105.523438 285.046875 L 1110.640625 301.324219 C 1112.371094 306.84375 1117.421875 310.550781 1123.207031 310.550781 L 1125.863281 310.550781 C 1128.535156 310.550781 1130.976562 309.3125 1132.558594 307.15625 Z M 1041.699219 285.492188 C 1041.597656 285.105469 1041.824219 284.714844 1042.207031 284.617188 C 1042.589844 284.511719 1042.980469 284.746094 1043.078125 285.125 L 1047.128906 300.605469 C 1047.226562 300.984375 1047 301.375 1046.617188 301.476562 C 1046.554688 301.492188 1046.496094 301.5 1046.433594 301.5 C 1046.117188 301.5 1045.828125 301.289062 1045.742188 300.964844 Z M 1174.515625 357.496094 L 1173.144531 357.902344 C 1173.121094 357.816406 1170.527344 349.351562 1163.996094 346.199219 L 1164.617188 344.910156 C 1171.726562 348.34375 1174.40625 357.121094 1174.515625 357.496094 Z M 1091.636719 358.171875 L 1037.382812 358.171875 L 1056.675781 343.648438 L 1107.464844 343.648438 Z M 1109.300781 342.21875 L 1056.4375 342.21875 C 1056.28125 342.21875 1056.132812 342.269531 1056.007812 342.363281 L 1034.816406 358.316406 C 1034.570312 358.5 1034.46875 358.824219 1034.566406 359.113281 C 1034.664062 359.40625 1034.9375 359.601562 1035.242188 359.601562 L 1091.917969 359.601562 C 1092.097656 359.601562 1092.269531 359.535156 1092.398438 359.414062 L 1109.785156 343.460938 C 1110 343.257812 1110.074219 342.949219 1109.964844 342.671875 C 1109.859375 342.398438 1109.59375 342.21875 1109.300781 342.21875 " fill-opacity="1" fill-rule="nonzero"/></g><path fill="#000000" d="M 1030.480469 310.3125 L 1052.269531 343.886719 L 1057.171875 347.058594 C 1057.558594 347.308594 1058.046875 346.929688 1057.898438 346.492188 L 1055.839844 340.3125 L 1033.875 307.808594 Z M 1080.367188 224.644531 C 1079.613281 224.644531 1079 225.257812 1079 226.015625 C 1079 226.773438 1079.613281 227.386719 1080.367188 227.386719 C 1081.125 227.386719 1081.738281 226.773438 1081.738281 226.015625 C 1081.738281 225.257812 1081.125 224.644531 1080.367188 224.644531 Z M 1065.1875 227.921875 C 1065.1875 228.675781 1064.574219 229.289062 1063.816406 229.289062 C 1063.0625 229.289062 1062.449219 228.675781 1062.449219 227.921875 C 1062.449219 227.164062 1063.0625 226.550781 1063.816406 226.550781 C 1064.574219 226.550781 1065.1875 227.164062 1065.1875 227.921875 " fill-opacity="1" fill-rule="nonzero"/><g fill="#ffffff" fill-opacity="1"><g transform="translate(240.714396, 278.367179)"><g><path d="M 10.6875 0 L 10.6875 -10.6875 L 0.59375 -30.046875 L 6.828125 -30.046875 L 13.484375 -16.1875 L 20.09375 -30.046875 L 26.21875 -30.046875 L 16.1875 -10.6875 L 16.1875 0 Z M 10.6875 0 "/></g></g></g><g fill="#ffffff" fill-opacity="1"><g transform="translate(267.543219, 278.367179)"><g><path d="M 13 0.515625 C 10.945312 0.515625 9.097656 0.046875 7.453125 -0.890625 C 5.804688 -1.835938 4.503906 -3.148438 3.546875 -4.828125 C 2.585938 -6.503906 2.109375 -8.441406 2.109375 -10.640625 C 2.109375 -12.847656 2.59375 -14.785156 3.5625 -16.453125 C 4.53125 -18.128906 5.835938 -19.4375 7.484375 -20.375 C 9.128906 -21.320312 10.984375 -21.796875 13.046875 -21.796875 C 15.078125 -21.796875 16.914062 -21.320312 18.5625 -20.375 C 20.207031 -19.4375 21.507812 -18.128906 22.46875 -16.453125 C 23.425781 -14.785156 23.90625 -12.847656 23.90625 -10.640625 C 23.90625 -8.441406 23.425781 -6.503906 22.46875 -4.828125 C 21.507812 -3.148438 20.195312 -1.835938 18.53125 -0.890625 C 16.875 0.046875 15.03125 0.515625 13 0.515625 Z M 13 -4.25 C 14.4375 -4.25 15.679688 -4.785156 16.734375 -5.859375 C 17.796875 -6.929688 18.328125 -8.523438 18.328125 -10.640625 C 18.328125 -12.765625 17.796875 -14.363281 16.734375 -15.4375 C 15.679688 -16.507812 14.453125 -17.046875 13.046875 -17.046875 C 11.585938 -17.046875 10.332031 -16.507812 9.28125 -15.4375 C 8.238281 -14.363281 7.71875 -12.765625 7.71875 -10.640625 C 7.71875 -8.523438 8.238281 -6.929688 9.28125 -5.859375 C 10.332031 -4.785156 11.570312 -4.25 13 -4.25 Z M 13 -4.25 "/></g></g></g><g fill="#ffffff" fill-opacity="1"><g transform="translate(293.556444, 278.367179)"><g><path d="M 10.765625 0.515625 C 8.109375 0.515625 6.054688 -0.3125 4.609375 -1.96875 C 3.171875 -3.632812 2.453125 -6.066406 2.453125 -9.265625 L 2.453125 -21.296875 L 7.890625 -21.296875 L 7.890625 -9.78125 C 7.890625 -7.957031 8.257812 -6.554688 9 -5.578125 C 9.75 -4.609375 10.925781 -4.125 12.53125 -4.125 C 14.050781 -4.125 15.300781 -4.664062 16.28125 -5.75 C 17.269531 -6.832031 17.765625 -8.347656 17.765625 -10.296875 L 17.765625 -21.296875 L 23.265625 -21.296875 L 23.265625 0 L 18.40625 0 L 17.984375 -3.609375 C 17.328125 -2.347656 16.375 -1.34375 15.125 -0.59375 C 13.882812 0.144531 12.429688 0.515625 10.765625 0.515625 Z M 10.765625 0.515625 "/></g></g></g><g fill="#ffffff" fill-opacity="1"><g transform="translate(319.655524, 278.367179)"><g><path d="M 2.796875 0 L 2.796875 -21.296875 L 7.6875 -21.296875 L 8.203125 -17.296875 C 8.972656 -18.671875 10.019531 -19.765625 11.34375 -20.578125 C 12.675781 -21.390625 14.242188 -21.796875 16.046875 -21.796875 L 16.046875 -16.015625 L 14.5 -16.015625 C 13.300781 -16.015625 12.226562 -15.828125 11.28125 -15.453125 C 10.34375 -15.078125 9.609375 -14.429688 9.078125 -13.515625 C 8.546875 -12.597656 8.28125 -11.328125 8.28125 -9.703125 L 8.28125 0 Z M 2.796875 0 "/></g></g></g><g fill="#ffffff" fill-opacity="1"><g transform="translate(336.654268, 278.367179)"><g/></g></g><g fill="#ffffff" fill-opacity="1"><g transform="translate(346.870687, 278.367179)"><g><path d="M 13.171875 0.515625 C 10.972656 0.515625 9.03125 0.132812 7.34375 -0.625 C 5.65625 -1.382812 4.320312 -2.472656 3.34375 -3.890625 C 2.375 -5.304688 1.875 -7.03125 1.84375 -9.0625 L 7.640625 -9.0625 C 7.691406 -7.65625 8.195312 -6.472656 9.15625 -5.515625 C 10.125 -4.554688 11.453125 -4.078125 13.140625 -4.078125 C 14.597656 -4.078125 15.753906 -4.425781 16.609375 -5.125 C 17.460938 -5.832031 17.890625 -6.769531 17.890625 -7.9375 C 17.890625 -9.164062 17.507812 -10.125 16.75 -10.8125 C 16 -11.5 14.992188 -12.054688 13.734375 -12.484375 C 12.472656 -12.921875 11.128906 -13.378906 9.703125 -13.859375 C 7.378906 -14.660156 5.609375 -15.691406 4.390625 -16.953125 C 3.179688 -18.210938 2.578125 -19.882812 2.578125 -21.96875 C 2.546875 -23.75 2.96875 -25.273438 3.84375 -26.546875 C 4.71875 -27.816406 5.910156 -28.800781 7.421875 -29.5 C 8.941406 -30.207031 10.6875 -30.5625 12.65625 -30.5625 C 14.664062 -30.5625 16.4375 -30.203125 17.96875 -29.484375 C 19.5 -28.773438 20.695312 -27.773438 21.5625 -26.484375 C 22.4375 -25.191406 22.90625 -23.660156 22.96875 -21.890625 L 17.078125 -21.890625 C 17.054688 -22.953125 16.648438 -23.890625 15.859375 -24.703125 C 15.066406 -25.515625 13.972656 -25.921875 12.578125 -25.921875 C 11.367188 -25.953125 10.359375 -25.660156 9.546875 -25.046875 C 8.734375 -24.429688 8.328125 -23.535156 8.328125 -22.359375 C 8.328125 -21.359375 8.640625 -20.5625 9.265625 -19.96875 C 9.898438 -19.382812 10.757812 -18.890625 11.84375 -18.484375 C 12.9375 -18.085938 14.179688 -17.664062 15.578125 -17.21875 C 17.066406 -16.695312 18.425781 -16.09375 19.65625 -15.40625 C 20.882812 -14.71875 21.867188 -13.804688 22.609375 -12.671875 C 23.359375 -11.546875 23.734375 -10.097656 23.734375 -8.328125 C 23.734375 -6.753906 23.332031 -5.296875 22.53125 -3.953125 C 21.726562 -2.609375 20.539062 -1.523438 18.96875 -0.703125 C 17.394531 0.109375 15.460938 0.515625 13.171875 0.515625 Z M 13.171875 0.515625 "/></g></g></g><g fill="#ffffff" fill-opacity="1"><g transform="translate(372.497571, 278.367179)"><g><path d="M 10.765625 0.515625 C 8.109375 0.515625 6.054688 -0.3125 4.609375 -1.96875 C 3.171875 -3.632812 2.453125 -6.066406 2.453125 -9.265625 L 2.453125 -21.296875 L 7.890625 -21.296875 L 7.890625 -9.78125 C 7.890625 -7.957031 8.257812 -6.554688 9 -5.578125 C 9.75 -4.609375 10.925781 -4.125 12.53125 -4.125 C 14.050781 -4.125 15.300781 -4.664062 16.28125 -5.75 C 17.269531 -6.832031 17.765625 -8.347656 17.765625 -10.296875 L 17.765625 -21.296875 L 23.265625 -21.296875 L 23.265625 0 L 18.40625 0 L 17.984375 -3.609375 C 17.328125 -2.347656 16.375 -1.34375 15.125 -0.59375 C 13.882812 0.144531 12.429688 0.515625 10.765625 0.515625 Z M 10.765625 0.515625 "/></g></g></g><g fill="#ffffff" fill-opacity="1"><g transform="translate(398.596651, 278.367179)"><g><path d="M 2.796875 0 L 2.796875 -21.296875 L 7.6875 -21.296875 L 8.203125 -17.296875 C 8.972656 -18.671875 10.019531 -19.765625 11.34375 -20.578125 C 12.675781 -21.390625 14.242188 -21.796875 16.046875 -21.796875 L 16.046875 -16.015625 L 14.5 -16.015625 C 13.300781 -16.015625 12.226562 -15.828125 11.28125 -15.453125 C 10.34375 -15.078125 9.609375 -14.429688 9.078125 -13.515625 C 8.546875 -12.597656 8.28125 -11.328125 8.28125 -9.703125 L 8.28125 0 Z M 2.796875 0 "/></g></g></g><g fill="#ffffff" fill-opacity="1"><g transform="translate(415.595404, 278.367179)"><g><path d="M 8.546875 0 L 0.734375 -21.296875 L 6.484375 -21.296875 L 11.890625 -5.1875 L 17.296875 -21.296875 L 23.046875 -21.296875 L 15.1875 0 Z M 8.546875 0 "/></g></g></g><g fill="#ffffff" fill-opacity="1"><g transform="translate(439.333531, 278.367179)"><g><path d="M 13.140625 0.515625 C 10.992188 0.515625 9.085938 0.0546875 7.421875 -0.859375 C 5.765625 -1.773438 4.460938 -3.0625 3.515625 -4.71875 C 2.578125 -6.375 2.109375 -8.289062 2.109375 -10.46875 C 2.109375 -12.675781 2.570312 -14.632812 3.5 -16.34375 C 4.425781 -18.0625 5.710938 -19.398438 7.359375 -20.359375 C 9.003906 -21.316406 10.941406 -21.796875 13.171875 -21.796875 C 15.265625 -21.796875 17.113281 -21.335938 18.71875 -20.421875 C 20.320312 -19.515625 21.570312 -18.265625 22.46875 -16.671875 C 23.375 -15.085938 23.828125 -13.320312 23.828125 -11.375 C 23.828125 -11.0625 23.816406 -10.734375 23.796875 -10.390625 C 23.785156 -10.046875 23.765625 -9.6875 23.734375 -9.3125 L 7.546875 -9.3125 C 7.660156 -7.65625 8.238281 -6.351562 9.28125 -5.40625 C 10.332031 -4.457031 11.601562 -3.984375 13.09375 -3.984375 C 14.207031 -3.984375 15.144531 -4.234375 15.90625 -4.734375 C 16.664062 -5.242188 17.226562 -5.898438 17.59375 -6.703125 L 23.171875 -6.703125 C 22.773438 -5.347656 22.109375 -4.117188 21.171875 -3.015625 C 20.242188 -1.921875 19.097656 -1.054688 17.734375 -0.421875 C 16.378906 0.203125 14.847656 0.515625 13.140625 0.515625 Z M 13.171875 -17.34375 C 11.828125 -17.34375 10.640625 -16.960938 9.609375 -16.203125 C 8.578125 -15.441406 7.921875 -14.289062 7.640625 -12.75 L 18.234375 -12.75 C 18.148438 -14.144531 17.632812 -15.257812 16.6875 -16.09375 C 15.75 -16.925781 14.578125 -17.34375 13.171875 -17.34375 Z M 13.171875 -17.34375 "/></g></g></g><g fill="#ffffff" fill-opacity="1"><g transform="translate(465.003347, 278.367179)"><g><path d="M 5.453125 9.4375 L 10.390625 -1.421875 L 9.09375 -1.421875 L 0.8125 -21.296875 L 6.78125 -21.296875 L 12.75 -6.3125 L 18.96875 -21.296875 L 24.8125 -21.296875 L 11.28125 9.4375 Z M 5.453125 9.4375 "/></g></g></g><g fill="#ffffff" fill-opacity="1"><g transform="translate(490.63023, 278.367179)"><g><path d="M 11.59375 0.515625 C 9.695312 0.515625 8.035156 0.207031 6.609375 -0.40625 C 5.179688 -1.019531 4.035156 -1.867188 3.171875 -2.953125 C 2.316406 -4.046875 1.800781 -5.304688 1.625 -6.734375 L 7.171875 -6.734375 C 7.335938 -5.910156 7.800781 -5.203125 8.5625 -4.609375 C 9.320312 -4.023438 10.300781 -3.734375 11.5 -3.734375 C 12.707031 -3.734375 13.585938 -3.972656 14.140625 -4.453125 C 14.703125 -4.941406 14.984375 -5.503906 14.984375 -6.140625 C 14.984375 -7.054688 14.582031 -7.675781 13.78125 -8 C 12.976562 -8.332031 11.863281 -8.65625 10.4375 -8.96875 C 9.519531 -9.164062 8.585938 -9.40625 7.640625 -9.6875 C 6.691406 -9.976562 5.820312 -10.34375 5.03125 -10.78125 C 4.25 -11.226562 3.613281 -11.800781 3.125 -12.5 C 2.644531 -13.207031 2.40625 -14.078125 2.40625 -15.109375 C 2.40625 -16.992188 3.15625 -18.578125 4.65625 -19.859375 C 6.15625 -21.148438 8.265625 -21.796875 10.984375 -21.796875 C 13.503906 -21.796875 15.515625 -21.207031 17.015625 -20.03125 C 18.515625 -18.863281 19.410156 -17.25 19.703125 -15.1875 L 14.5 -15.1875 C 14.1875 -16.769531 13 -17.5625 10.9375 -17.5625 C 9.914062 -17.5625 9.125 -17.359375 8.5625 -16.953125 C 8 -16.554688 7.71875 -16.054688 7.71875 -15.453125 C 7.71875 -14.816406 8.132812 -14.3125 8.96875 -13.9375 C 9.800781 -13.570312 10.90625 -13.234375 12.28125 -12.921875 C 13.757812 -12.578125 15.117188 -12.195312 16.359375 -11.78125 C 17.609375 -11.363281 18.601562 -10.75 19.34375 -9.9375 C 20.09375 -9.125 20.46875 -7.957031 20.46875 -6.4375 C 20.5 -5.125 20.15625 -3.9375 19.4375 -2.875 C 18.726562 -1.8125 17.695312 -0.976562 16.34375 -0.375 C 15 0.21875 13.414062 0.515625 11.59375 0.515625 Z M 11.59375 0.515625 "/></g></g></g><g fill="#ffffff" fill-opacity="1"><g transform="translate(513.166436, 278.367179)"><g/></g></g><g fill="#ffffff" fill-opacity="1"><g transform="translate(523.382847, 278.367179)"><g><path d="M 2.921875 0 L 2.921875 -30.046875 L 8.40625 -30.046875 L 8.40625 -17.5625 L 21.890625 -17.5625 L 21.890625 -30.046875 L 27.390625 -30.046875 L 27.390625 0 L 21.890625 0 L 21.890625 -13.09375 L 8.40625 -13.09375 L 8.40625 0 Z M 2.921875 0 "/></g></g></g><g fill="#ffffff" fill-opacity="1"><g transform="translate(553.688687, 278.367179)"><g><path d="M 13.140625 0.515625 C 10.992188 0.515625 9.085938 0.0546875 7.421875 -0.859375 C 5.765625 -1.773438 4.460938 -3.0625 3.515625 -4.71875 C 2.578125 -6.375 2.109375 -8.289062 2.109375 -10.46875 C 2.109375 -12.675781 2.570312 -14.632812 3.5 -16.34375 C 4.425781 -18.0625 5.710938 -19.398438 7.359375 -20.359375 C 9.003906 -21.316406 10.941406 -21.796875 13.171875 -21.796875 C 15.265625 -21.796875 17.113281 -21.335938 18.71875 -20.421875 C 20.320312 -19.515625 21.570312 -18.265625 22.46875 -16.671875 C 23.375 -15.085938 23.828125 -13.320312 23.828125 -11.375 C 23.828125 -11.0625 23.816406 -10.734375 23.796875 -10.390625 C 23.785156 -10.046875 23.765625 -9.6875 23.734375 -9.3125 L 7.546875 -9.3125 C 7.660156 -7.65625 8.238281 -6.351562 9.28125 -5.40625 C 10.332031 -4.457031 11.601562 -3.984375 13.09375 -3.984375 C 14.207031 -3.984375 15.144531 -4.234375 15.90625 -4.734375 C 16.664062 -5.242188 17.226562 -5.898438 17.59375 -6.703125 L 23.171875 -6.703125 C 22.773438 -5.347656 22.109375 -4.117188 21.171875 -3.015625 C 20.242188 -1.921875 19.097656 -1.054688 17.734375 -0.421875 C 16.378906 0.203125 14.847656 0.515625 13.140625 0.515625 Z M 13.171875 -17.34375 C 11.828125 -17.34375 10.640625 -16.960938 9.609375 -16.203125 C 8.578125 -15.441406 7.921875 -14.289062 7.640625 -12.75 L 18.234375 -12.75 C 18.148438 -14.144531 17.632812 -15.257812 16.6875 -16.09375 C 15.75 -16.925781 14.578125 -17.34375 13.171875 -17.34375 Z M 13.171875 -17.34375 "/></g></g></g><g fill="#ffffff" fill-opacity="1"><g transform="translate(579.35852, 278.367179)"><g><path d="M 2.796875 0 L 2.796875 -21.296875 L 7.6875 -21.296875 L 8.203125 -17.296875 C 8.972656 -18.671875 10.019531 -19.765625 11.34375 -20.578125 C 12.675781 -21.390625 14.242188 -21.796875 16.046875 -21.796875 L 16.046875 -16.015625 L 14.5 -16.015625 C 13.300781 -16.015625 12.226562 -15.828125 11.28125 -15.453125 C 10.34375 -15.078125 9.609375 -14.429688 9.078125 -13.515625 C 8.546875 -12.597656 8.28125 -11.328125 8.28125 -9.703125 L 8.28125 0 Z M 2.796875 0 "/></g></g></g><g fill="#ffffff" fill-opacity="1"><g transform="translate(596.357255, 278.367179)"><g><path d="M 13.140625 0.515625 C 10.992188 0.515625 9.085938 0.0546875 7.421875 -0.859375 C 5.765625 -1.773438 4.460938 -3.0625 3.515625 -4.71875 C 2.578125 -6.375 2.109375 -8.289062 2.109375 -10.46875 C 2.109375 -12.675781 2.570312 -14.632812 3.5 -16.34375 C 4.425781 -18.0625 5.710938 -19.398438 7.359375 -20.359375 C 9.003906 -21.316406 10.941406 -21.796875 13.171875 -21.796875 C 15.265625 -21.796875 17.113281 -21.335938 18.71875 -20.421875 C 20.320312 -19.515625 21.570312 -18.265625 22.46875 -16.671875 C 23.375 -15.085938 23.828125 -13.320312 23.828125 -11.375 C 23.828125 -11.0625 23.816406 -10.734375 23.796875 -10.390625 C 23.785156 -10.046875 23.765625 -9.6875 23.734375 -9.3125 L 7.546875 -9.3125 C 7.660156 -7.65625 8.238281 -6.351562 9.28125 -5.40625 C 10.332031 -4.457031 11.601562 -3.984375 13.09375 -3.984375 C 14.207031 -3.984375 15.144531 -4.234375 15.90625 -4.734375 C 16.664062 -5.242188 17.226562 -5.898438 17.59375 -6.703125 L 23.171875 -6.703125 C 22.773438 -5.347656 22.109375 -4.117188 21.171875 -3.015625 C 20.242188 -1.921875 19.097656 -1.054688 17.734375 -0.421875 C 16.378906 0.203125 14.847656 0.515625 13.140625 0.515625 Z M 13.171875 -17.34375 C 11.828125 -17.34375 10.640625 -16.960938 9.609375 -16.203125 C 8.578125 -15.441406 7.921875 -14.289062 7.640625 -12.75 L 18.234375 -12.75 C 18.148438 -14.144531 17.632812 -15.257812 16.6875 -16.09375 C 15.75 -16.925781 14.578125 -17.34375 13.171875 -17.34375 Z M 13.171875 -17.34375 "/></g></g></g><g fill="#ffffff" fill-opacity="1"><g transform="translate(622.027088, 278.367179)"><g/></g></g><g fill="#ffffff" fill-opacity="1"><g transform="translate(632.243516, 278.367179)"><g><path d="M 9.921875 0 L 9.921875 -25.625 L 1.15625 -25.625 L 1.15625 -30.046875 L 24.203125 -30.046875 L 24.203125 -25.625 L 15.40625 -25.625 L 15.40625 0 Z M 9.921875 0 "/></g></g></g><g fill="#ffffff" fill-opacity="1"><g transform="translate(657.612839, 278.367179)"><g><path d="M 13 0.515625 C 10.945312 0.515625 9.097656 0.046875 7.453125 -0.890625 C 5.804688 -1.835938 4.503906 -3.148438 3.546875 -4.828125 C 2.585938 -6.503906 2.109375 -8.441406 2.109375 -10.640625 C 2.109375 -12.847656 2.59375 -14.785156 3.5625 -16.453125 C 4.53125 -18.128906 5.835938 -19.4375 7.484375 -20.375 C 9.128906 -21.320312 10.984375 -21.796875 13.046875 -21.796875 C 15.078125 -21.796875 16.914062 -21.320312 18.5625 -20.375 C 20.207031 -19.4375 21.507812 -18.128906 22.46875 -16.453125 C 23.425781 -14.785156 23.90625 -12.847656 23.90625 -10.640625 C 23.90625 -8.441406 23.425781 -6.503906 22.46875 -4.828125 C 21.507812 -3.148438 20.195312 -1.835938 18.53125 -0.890625 C 16.875 0.046875 15.03125 0.515625 13 0.515625 Z M 13 -4.25 C 14.4375 -4.25 15.679688 -4.785156 16.734375 -5.859375 C 17.796875 -6.929688 18.328125 -8.523438 18.328125 -10.640625 C 18.328125 -12.765625 17.796875 -14.363281 16.734375 -15.4375 C 15.679688 -16.507812 14.453125 -17.046875 13.046875 -17.046875 C 11.585938 -17.046875 10.332031 -16.507812 9.28125 -15.4375 C 8.238281 -14.363281 7.71875 -12.765625 7.71875 -10.640625 C 7.71875 -8.523438 8.238281 -6.929688 9.28125 -5.859375 C 10.332031 -4.785156 11.570312 -4.25 13 -4.25 Z M 13 -4.25 "/></g></g></g><g fill="#ffffff" fill-opacity="1"><g transform="translate(240.714396, 321.240485)"><g><path d="M 2.921875 0 L 2.921875 -30.046875 L 22.3125 -30.046875 L 22.3125 -25.625 L 8.40625 -25.625 L 8.40625 -17.21875 L 19.65625 -17.21875 L 19.65625 -12.875 L 8.40625 -12.875 L 8.40625 0 Z M 2.921875 0 "/></g></g></g><g fill="#ffffff" fill-opacity="1"><g transform="translate(264.366686, 321.240485)"><g><path d="M 13 0.515625 C 10.945312 0.515625 9.097656 0.046875 7.453125 -0.890625 C 5.804688 -1.835938 4.503906 -3.148438 3.546875 -4.828125 C 2.585938 -6.503906 2.109375 -8.441406 2.109375 -10.640625 C 2.109375 -12.847656 2.59375 -14.785156 3.5625 -16.453125 C 4.53125 -18.128906 5.835938 -19.4375 7.484375 -20.375 C 9.128906 -21.320312 10.984375 -21.796875 13.046875 -21.796875 C 15.078125 -21.796875 16.914062 -21.320312 18.5625 -20.375 C 20.207031 -19.4375 21.507812 -18.128906 22.46875 -16.453125 C 23.425781 -14.785156 23.90625 -12.847656 23.90625 -10.640625 C 23.90625 -8.441406 23.425781 -6.503906 22.46875 -4.828125 C 21.507812 -3.148438 20.195312 -1.835938 18.53125 -0.890625 C 16.875 0.046875 15.03125 0.515625 13 0.515625 Z M 13 -4.25 C 14.4375 -4.25 15.679688 -4.785156 16.734375 -5.859375 C 17.796875 -6.929688 18.328125 -8.523438 18.328125 -10.640625 C 18.328125 -12.765625 17.796875 -14.363281 16.734375 -15.4375 C 15.679688 -16.507812 14.453125 -17.046875 13.046875 -17.046875 C 11.585938 -17.046875 10.332031 -16.507812 9.28125 -15.4375 C 8.238281 -14.363281 7.71875 -12.765625 7.71875 -10.640625 C 7.71875 -8.523438 8.238281 -6.929688 9.28125 -5.859375 C 10.332031 -4.785156 11.570312 -4.25 13 -4.25 Z M 13 -4.25 "/></g></g></g><g fill="#ffffff" fill-opacity="1"><g transform="translate(290.379909, 321.240485)"><g><path d="M 2.796875 0 L 2.796875 -30.90625 L 8.28125 -30.90625 L 8.28125 0 Z M 2.796875 0 "/></g></g></g><g fill="#ffffff" fill-opacity="1"><g transform="translate(301.497773, 321.240485)"><g><path d="M 2.796875 0 L 2.796875 -30.90625 L 8.28125 -30.90625 L 8.28125 0 Z M 2.796875 0 "/></g></g></g><g fill="#ffffff" fill-opacity="1"><g transform="translate(312.615638, 321.240485)"><g><path d="M 13 0.515625 C 10.945312 0.515625 9.097656 0.046875 7.453125 -0.890625 C 5.804688 -1.835938 4.503906 -3.148438 3.546875 -4.828125 C 2.585938 -6.503906 2.109375 -8.441406 2.109375 -10.640625 C 2.109375 -12.847656 2.59375 -14.785156 3.5625 -16.453125 C 4.53125 -18.128906 5.835938 -19.4375 7.484375 -20.375 C 9.128906 -21.320312 10.984375 -21.796875 13.046875 -21.796875 C 15.078125 -21.796875 16.914062 -21.320312 18.5625 -20.375 C 20.207031 -19.4375 21.507812 -18.128906 22.46875 -16.453125 C 23.425781 -14.785156 23.90625 -12.847656 23.90625 -10.640625 C 23.90625 -8.441406 23.425781 -6.503906 22.46875 -4.828125 C 21.507812 -3.148438 20.195312 -1.835938 18.53125 -0.890625 C 16.875 0.046875 15.03125 0.515625 13 0.515625 Z M 13 -4.25 C 14.4375 -4.25 15.679688 -4.785156 16.734375 -5.859375 C 17.796875 -6.929688 18.328125 -8.523438 18.328125 -10.640625 C 18.328125 -12.765625 17.796875 -14.363281 16.734375 -15.4375 C 15.679688 -16.507812 14.453125 -17.046875 13.046875 -17.046875 C 11.585938 -17.046875 10.332031 -16.507812 9.28125 -15.4375 C 8.238281 -14.363281 7.71875 -12.765625 7.71875 -10.640625 C 7.71875 -8.523438 8.238281 -6.929688 9.28125 -5.859375 C 10.332031 -4.785156 11.570312 -4.25 13 -4.25 Z M 13 -4.25 "/></g></g></g><g fill="#ffffff" fill-opacity="1"><g transform="translate(338.628863, 321.240485)"><g><path d="M 6.953125 0 L 0.734375 -21.296875 L 6.1875 -21.296875 L 9.875 -5.96875 L 14.171875 -21.296875 L 20.265625 -21.296875 L 24.546875 -5.96875 L 28.28125 -21.296875 L 33.734375 -21.296875 L 27.46875 0 L 21.765625 0 L 17.21875 -15.921875 L 12.65625 0 Z M 6.953125 0 "/></g></g></g><g fill="#ffffff" fill-opacity="1"><g transform="translate(373.055599, 321.240485)"><g><path d="M 3.953125 -9.484375 L 3.34375 -30.046875 L 9.234375 -30.046875 L 8.578125 -9.484375 Z M 6.390625 0.296875 C 5.359375 0.296875 4.519531 -0.015625 3.875 -0.640625 C 3.238281 -1.273438 2.921875 -2.035156 2.921875 -2.921875 C 2.921875 -3.835938 3.238281 -4.609375 3.875 -5.234375 C 4.519531 -5.867188 5.359375 -6.1875 6.390625 -6.1875 C 7.367188 -6.1875 8.175781 -5.867188 8.8125 -5.234375 C 9.457031 -4.609375 9.78125 -3.835938 9.78125 -2.921875 C 9.78125 -2.035156 9.457031 -1.273438 8.8125 -0.640625 C 8.175781 -0.015625 7.367188 0.296875 6.390625 0.296875 Z M 6.390625 0.296875 "/></g></g></g></svg>